<svg width="23" height="23" viewBox="0 0 23 23" fill="none" xmlns="http://www.w3.org/2000/svg">
<g clip-path="url(#clip0_2029_9115)">
<path d="M15.625 0.5H7.375C5.55164 0.5 3.80295 1.22433 2.51364 2.51364C1.22433 3.80295 0.5 5.55164 0.5 7.375L0.5 15.625C0.5 17.4484 1.22433 19.197 2.51364 20.4864C3.80295 21.7757 5.55164 22.5 7.375 22.5H15.625C17.4484 22.5 19.197 21.7757 20.4864 20.4864C21.7757 19.197 22.5 17.4484 22.5 15.625V7.375C22.5 5.55164 21.7757 3.80295 20.4864 2.51364C19.197 1.22433 17.4484 0.5 15.625 0.5V0.5ZM20.4375 15.625C20.4375 18.2787 18.2787 20.4375 15.625 20.4375H7.375C4.72125 20.4375 2.5625 18.2787 2.5625 15.625V7.375C2.5625 4.72125 4.72125 2.5625 7.375 2.5625H15.625C18.2787 2.5625 20.4375 4.72125 20.4375 7.375V15.625Z" fill="url(#paint0_linear_2029_9115)"/>
<path d="M11.5 6C10.0413 6 8.64236 6.57946 7.61091 7.61091C6.57946 8.64236 6 10.0413 6 11.5C6 12.9587 6.57946 14.3576 7.61091 15.3891C8.64236 16.4205 10.0413 17 11.5 17C12.9587 17 14.3576 16.4205 15.3891 15.3891C16.4205 14.3576 17 12.9587 17 11.5C17 10.0413 16.4205 8.64236 15.3891 7.61091C14.3576 6.57946 12.9587 6 11.5 6ZM11.5 14.9375C10.5887 14.9364 9.71495 14.5739 9.07053 13.9295C8.42611 13.2851 8.06359 12.4113 8.0625 11.5C8.0625 9.60388 9.60525 8.0625 11.5 8.0625C13.3948 8.0625 14.9375 9.60388 14.9375 11.5C14.9375 13.3948 13.3948 14.9375 11.5 14.9375Z" fill="url(#paint1_linear_2029_9115)"/>
<path d="M17.4126 6.32024C17.8173 6.32024 18.1454 5.99212 18.1454 5.58737C18.1454 5.18261 17.8173 4.85449 17.4126 4.85449C17.0078 4.85449 16.6797 5.18261 16.6797 5.58737C16.6797 5.99212 17.0078 6.32024 17.4126 6.32024Z" fill="url(#paint2_linear_2029_9115)"/>
</g>
<defs>
<linearGradient id="paint0_linear_2029_9115" x1="2.51369" y1="20.4863" x2="20.4863" y2="2.51369" gradientUnits="userSpaceOnUse">
<stop stop-color="#FFC107"/>
<stop offset="0.5074" stop-color="#F44336"/>
<stop offset="0.9901" stop-color="#9C27B0"/>
</linearGradient>
<linearGradient id="paint1_linear_2029_9115" x1="7.61095" y1="15.389" x2="15.389" y2="7.61095" gradientUnits="userSpaceOnUse">
<stop stop-color="#FFC107"/>
<stop offset="0.5074" stop-color="#F44336"/>
<stop offset="0.9901" stop-color="#9C27B0"/>
</linearGradient>
<linearGradient id="paint2_linear_2029_9115" x1="16.8941" y1="6.10588" x2="17.9311" y2="5.06885" gradientUnits="userSpaceOnUse">
<stop stop-color="#FFC107"/>
<stop offset="0.5074" stop-color="#F44336"/>
<stop offset="0.9901" stop-color="#9C27B0"/>
</linearGradient>
<clipPath id="clip0_2029_9115">
<rect width="22" height="22" fill="white" transform="translate(0.5 0.5)"/>
</clipPath>
</defs>
</svg>
